<?xml version="1.0" encoding="UTF-8" standalone="no"?>
<svg width="16px" height="18px" viewBox="0 0 16 18" version="1.1" xmlns="http://www.w3.org/2000/svg" xmlns:xlink="http://www.w3.org/1999/xlink">
    <!-- Generator: Sketch 3.8.1 (29687) - http://www.bohemiancoding.com/sketch -->
    <title>calendar</title>
    <desc>Created with Sketch.</desc>
    <defs></defs>
    <g id="Mock-up" stroke="none" stroke-width="1" fill="none" fill-rule="evenodd">
        <g id="Single-Article-Large-1280" transform="translate(-442.000000, -240.000000)">
            <g id="byline" transform="translate(330.000000, 240.000000)">
                <g id="date" transform="translate(110.000000, 0.000000)">
                    <g id="calendar">
                        <polygon id="Shape" points="0 0 20 0 20 20 0 20"></polygon>
                        <path d="M15.8333333,2.5 L15,2.5 L15,0.833333333 L13.3333333,0.833333333 L13.3333333,2.5 L6.66666667,2.5 L6.66666667,0.833333333 L5,0.833333333 L5,2.5 L4.16666667,2.5 C3.24166667,2.5 2.50833333,3.25 2.50833333,4.16666667 L2.5,15.8333333 C2.5,16.75 3.24166667,17.5 4.16666667,17.5 L15.8333333,17.5 C16.75,17.5 17.5,16.75 17.5,15.8333333 L17.5,4.16666667 C17.5,3.25 16.75,2.5 15.8333333,2.5 L15.8333333,2.5 Z M15.8333333,15.8333333 L4.16666667,15.8333333 L4.16666667,6.66666667 L15.8333333,6.66666667 L15.8333333,15.8333333 L15.8333333,15.8333333 Z M5.83333333,8.33333333 L10,8.33333333 L10,12.5 L5.83333333,12.5 L5.83333333,8.33333333 Z" id="Shape" fill="#202226"></path>
                    </g>
                </g>
            </g>
        </g>
    </g>
</svg>
