<?xml version="1.0" encoding="UTF-8" standalone="no"?>
<svg width="18px" height="18px" viewBox="0 0 18 18" version="1.1" xmlns="http://www.w3.org/2000/svg" xmlns:xlink="http://www.w3.org/1999/xlink">
    <!-- Generator: Sketch 3.8.1 (29687) - http://www.bohemiancoding.com/sketch -->
    <title>gravatar</title>
    <desc>Created with Sketch.</desc>
    <defs></defs>
    <g id="Mock-up" stroke="none" stroke-width="1" fill="none" fill-rule="evenodd">
        <g id="Single-Article-Large-1280" transform="translate(-331.000000, -241.000000)">
            <g id="byline" transform="translate(330.000000, 240.000000)">
                <g id="author">
                    <g id="gravatar">
                        <path d="M10,1.66666667 C5.4,1.66666667 1.66666667,5.4 1.66666667,10 C1.66666667,14.6 5.4,18.3333333 10,18.3333333 C14.6,18.3333333 18.3333333,14.6 18.3333333,10 C18.3333333,5.4 14.6,1.66666667 10,1.66666667 L10,1.66666667 Z M10,4.16666667 C11.3833333,4.16666667 12.5,5.28333333 12.5,6.66666667 C12.5,8.05 11.3833333,9.16666667 10,9.16666667 C8.61666667,9.16666667 7.5,8.05 7.5,6.66666667 C7.5,5.28333333 8.61666667,4.16666667 10,4.16666667 L10,4.16666667 Z M10,16 C7.91666667,16 6.075,14.9333333 5,13.3166667 C5.025,11.6583333 8.33333333,10.75 10,10.75 C11.6583333,10.75 14.975,11.6583333 15,13.3166667 C13.925,14.9333333 12.0833333,16 10,16 L10,16 Z" id="Shape" fill="#202226"></path>
                        <polygon id="Shape" points="0 0 20 0 20 20 0 20"></polygon>
                    </g>
                </g>
            </g>
        </g>
    </g>
</svg>
