<?xml version="1.0" encoding="UTF-8" standalone="no"?>
<svg width="105px" height="28px" viewBox="0 0 105 28" version="1.1" xmlns="http://www.w3.org/2000/svg" xmlns:xlink="http://www.w3.org/1999/xlink" xmlns:sketch="http://www.bohemiancoding.com/sketch/ns">
    <title>logos</title>
    <description>Created with Sketch (http://www.bohemiancoding.com/sketch)</description>
    <defs></defs>
    <g id="Page-1" stroke="none" stroke-width="1" fill="none" fill-rule="evenodd" sketch:type="MSPage">
        <path d="M18.4605859,2.88659794 C16.9872058,1.61649485 14.6471316,0.865979381 12.1914981,0.865979381 C7.4246801,0.865979381 3.61122573,3.86804124 3.61122573,7.90927835 C3.61122573,10.2474227 5.02682621,11.5175258 7.28023107,12.3546392 L9.38918689,13.1340206 C10.8336772,13.6536082 11.5270325,14.2886598 11.5270325,15.2989691 C11.5270325,17.2907216 9.88031359,18.6185567 7.33801068,18.6185567 C5.31572427,18.6185567 3.81345437,18.0412371 2.13784563,17.0597938 L0,20.1484536 C1.67560874,21.2164948 3.78456456,21.9670103 6.61576553,21.9670103 C12.6248451,21.9670103 16.3516301,18.6762887 16.3516301,14.3175258 C16.3516301,12.0371134 14.9649194,10.5360825 12.3937267,9.58350515 L10.0825422,8.71752577 C8.75361116,8.22680412 8.23359466,7.59175258 8.23359466,6.78350515 C8.23359466,5.39793814 9.76475437,4.24329897 11.5848121,4.24329897 C13.3182005,4.24329897 14.733801,4.67628866 16.0338422,5.65773196 C16.0338422,5.65773196 14.733801,4.67628866 16.0338422,5.65773196 L18.4605859,2.88659794 Z M31.4032192,11.3154639 C31.4032192,8.31340206 29.9587289,6.4371134 27.4453158,6.4371134 C25.625258,6.4371134 23.8918697,7.47628866 22.7940571,8.63092784 C22.8518367,7.96701031 22.6784978,6.66804124 22.4184896,6.26391753 L18.8361537,7.67835052 C19.1250517,8.5443299 19.240611,9.69896907 18.8939333,11.3443299 L15.369377,27.8845361 L19.2983906,26.9030928 L20.280644,22.2845361 C20.3384236,21.9958763 20.4539828,21.5340206 20.425093,21.2742268 C21.0606687,21.6494845 22.2740406,21.8515464 23.4296328,21.8515464 C25.33636,21.8515464 27.1275279,20.985567 28.456459,19.657732 C30.247627,17.8680412 31.4032192,14 31.4032192,11.3154639 C31.4032192,11.3154639 31.4032192,14 31.4032192,11.3154639 Z M27.2430872,11.4309278 C27.2430872,13.0762887 26.6364012,16.0494845 25.5385886,17.6948454 C25.0763517,18.3876289 24.4118862,18.9649485 23.1696245,18.9649485 C22.3895998,18.9649485 21.4362362,18.6474227 21.2051177,18.3298969 L22.5629386,12.0082474 C23.6607512,10.3340206 24.9319027,9.67010309 25.8852663,9.67010309 C26.8675197,9.67010309 27.2430872,10.2474227 27.2430872,11.4309278 C27.2430872,11.4309278 27.2430872,10.2474227 27.2430872,11.4309278 Z M43.045811,6.7257732 C42.5257944,6.46597938 42.2657862,6.40824742 41.7168799,6.40824742 C40.2723896,6.40824742 38.8856789,7.33195876 37.5856376,8.65979381 C37.7011969,7.82268041 37.4700784,6.75463918 37.23896,6.26391753 L33.6566241,7.67835052 C33.9455221,8.63092784 34.0033017,9.92989691 33.5988444,11.7773196 L31.5187784,21.5340206 L35.3900124,21.5340206 L37.4411886,11.8639175 C38.6545605,10.2762887 39.4923648,9.84329897 40.2434998,9.84329897 C40.6768469,9.84329897 41.0235245,9.92989691 41.3702022,10.1319588 C41.3702022,10.1319588 41.0235245,9.92989691 41.3702022,10.1319588 L43.045811,6.7257732 Z M54.7317376,10.4783505 C54.7317376,7.59175258 52.6227817,6.4371134 49.7049113,6.4371134 C47.7404046,6.4371134 46.0936856,6.98556701 44.6203055,8.4 C42.6557987,10.3051546 41.2979779,13.4515464 41.2979779,16.5113402 C41.2979779,20.0907216 43.3780439,21.9381443 46.9026002,21.9381443 C48.9826662,21.9381443 50.9182832,21.3030928 52.9116798,19.9175258 L51.9294264,17.4927835 C50.5427157,18.4742268 49.156005,19.0515464 47.827074,19.0515464 C46.2092448,19.0515464 45.3425507,18.3587629 45.3425507,16.6845361 C45.3425507,16.3670103 45.4292201,15.6742268 45.4869997,15.356701 C45.6603385,15.414433 46.4114735,15.5587629 47.2492779,15.5587629 C52.1605448,15.5587629 54.7317376,13.2783505 54.7317376,10.4783505 C54.7317376,10.4783505 54.7317376,13.2783505 54.7317376,10.4783505 Z M50.8316138,10.7958763 C50.8316138,12.2680412 48.8959968,12.8453608 47.220388,12.8453608 C46.7581512,12.8453608 46.2381346,12.7298969 46.1225754,12.7010309 C46.7003715,10.1319588 47.7981842,9.26597938 49.2715643,9.26597938 C50.4271565,9.26597938 50.8316138,9.90103093 50.8316138,10.7958763 C50.8316138,10.7958763 50.8316138,9.90103093 50.8316138,10.7958763 Z M68.2810566,10.4783505 C68.2810566,7.59175258 66.1721007,6.4371134 63.2542303,6.4371134 C61.2897236,6.4371134 59.6430046,6.98556701 58.1696245,8.4 C56.2051177,10.3051546 54.8472969,13.4515464 54.8472969,16.5113402 C54.8472969,20.0907216 56.9273629,21.9381443 60.4519192,21.9381443 C62.5319852,21.9381443 64.4676022,21.3030928 66.4609988,19.9175258 L65.4787454,17.4927835 C64.0920347,18.4742268 62.705324,19.0515464 61.376393,19.0515464 C59.7585638,19.0515464 58.8918697,18.3587629 58.8918697,16.6845361 C58.8918697,16.3670103 58.9785391,15.6742268 59.0363187,15.356701 C59.2096575,15.414433 59.9607925,15.5587629 60.7985969,15.5587629 C65.7098638,15.5587629 68.2810566,13.2783505 68.2810566,10.4783505 C68.2810566,10.4783505 68.2810566,13.2783505 68.2810566,10.4783505 Z M64.3809328,10.7958763 C64.3809328,12.2680412 62.4453158,12.8453608 60.769707,12.8453608 C60.3074702,12.8453608 59.7874536,12.7298969 59.6718944,12.7010309 C60.2496905,10.1319588 61.3475032,9.26597938 62.8208833,9.26597938 C63.9764755,9.26597938 64.3809328,9.90103093 64.3809328,10.7958763 C64.3809328,10.7958763 64.3809328,9.90103093 64.3809328,10.7958763 Z M83.997111,0.779381443 L80.270326,0.173195876 L79.2014032,5.25360825 C79.0280644,6.11958763 78.941395,6.7257732 78.9125052,6.95670103 C78.6236071,6.81237113 77.4680149,6.55257732 76.3990921,6.55257732 C74.6657037,6.55257732 72.990095,7.30309278 71.6322741,8.57319588 C69.5522081,10.5649485 68.3966159,13.7979381 68.3966159,16.7134021 C68.3966159,20.1484536 69.8411061,21.9092784 72.9323154,21.9092784 C74.2901362,21.9092784 75.7346265,21.2453608 76.6591003,20.1773196 C76.6302105,20.5814433 76.7457697,21.3030928 76.8035493,21.5340206 L80.125877,21.5340206 C80.0680974,21.3608247 80.0392076,21.1010309 80.0392076,20.7257732 C80.0392076,19.9463918 80.2125464,18.6185567 80.7325629,16.1360825 C80.7325629,16.1360825 80.2125464,18.6185567 80.7325629,16.1360825 L83.997111,0.779381443 Z M78.1324804,10.2185567 L76.6591003,16.8865979 C76.2257532,17.6948454 74.8101527,18.8494845 73.9434586,18.8494845 C72.9323154,18.8494845 72.4411887,18.1278351 72.4411887,16.7134021 C72.4411887,14.8659794 73.134544,12.2391753 74.2323566,10.7958763 C74.8101527,10.0453608 75.5035081,9.64123711 76.254643,9.64123711 C77.0924474,9.64123711 77.7569129,9.84329897 78.1324804,10.2185567 C78.1324804,10.2185567 77.7569129,9.84329897 78.1324804,10.2185567 Z M90.0495254,0 L85.9471729,1.24123711 C86.0338424,1.55876289 86.0627322,1.90515464 86.0627322,2.28041237 C86.0627322,3.11752577 85.8893933,4.18556701 85.6004953,5.51340206 L83.260421,16.5402062 C83.0293026,17.6082474 82.8270739,18.7051546 82.8270739,19.2247423 C82.8270739,20.7546392 83.8093273,21.8804124 85.8893933,21.8804124 C86.7271977,21.8804124 87.5938919,21.7360825 88.2872472,21.4762887 L88.1139084,19.1670103 C87.9694593,19.2247423 87.8250103,19.2247423 87.6805613,19.2247423 C87.1605448,19.2247423 86.9294263,18.9360825 86.9294263,18.3876289 C86.9294263,17.9835052 87.0449856,17.2618557 87.420553,15.5298969 L89.7606273,4.58969072 C90.0206356,3.37731959 90.107305,2.07835052 90.107305,1.1257732 C90.107305,0.635051546 90.0784152,0.230927835 90.0495254,0 C90.0495254,0 90.0784152,0.230927835 90.0495254,0 Z M105,6.75463918 L100.839868,6.75463918 L97.113083,13.7979381 C96.2463888,15.443299 95.321915,17.6948454 95.1196864,18.214433 C95.1196864,17.7814433 95.0619068,15.9628866 95.0041272,15.1546392 L94.281882,6.52371134 L90.2950888,6.98556701 L91.6240199,17.3773196 C91.7973587,18.6474227 91.9418078,20.4371134 91.9995874,21.5340206 L93.0685102,21.5340206 C92.1440364,23.0927835 91.6817995,23.756701 90.4973175,24.4783505 C89.8328519,24.8824742 88.7928189,25.2 87.897235,25.4020619 L88.6772597,28 C90.0639704,27.8268041 91.4217913,27.3649485 92.5484937,26.643299 C93.7907553,25.8639175 94.8018985,24.6226804 96.4197277,21.7649485 C96.4197277,21.7649485 94.8018985,24.6226804 96.4197277,21.7649485 L105,6.75463918 Z" id="Spreedly-copy-2" fill="#FFFFFF" sketch:type="MSShapeGroup"></path>
    </g>
</svg>